<?xml version="1.0" encoding="utf-8"?>
<!-- Generator: Adobe Illustrator 16.0.0, SVG Export Plug-In . SVG Version: 6.00 Build 0)  -->
<!DOCTYPE svg PUBLIC "-//W3C//DTD SVG 1.1//EN" "http://www.w3.org/Graphics/SVG/1.1/DTD/svg11.dtd">
<svg version="1.1" id="Layer_1" xmlns="http://www.w3.org/2000/svg" xmlns:xlink="http://www.w3.org/1999/xlink" x="0px" y="0px"
	 width="50px" height="50px" viewBox="0 0 50 50" enable-background="new 0 0 50 50" xml:space="preserve">
<g class="cmUsrIcon-oneGroup">
	<path d="M21.431,27.44c0-0.29,0.236-0.502,0.502-0.502h0.979c0.237,0,0.397,0.13,0.45,0.29l0.368,1.006
		c0.451-0.504,1.666-1.562,3.545-1.562c1.506,0,2.565,0.583,3.438,1.64c0.449-0.477,1.823-1.64,3.726-1.64
		c3.385,0,4.628,2.514,4.628,5.29v5.05c0,0.263-0.21,0.504-0.499,0.504h-2.146c-0.289,0-0.502-0.241-0.502-0.504v-5.236
		c0-1.375-0.658-2.245-1.982-2.245c-1.532,0-2.223,1.108-2.223,1.108s0.029,0.529,0.029,1.006v5.367
		c0,0.263-0.237,0.504-0.505,0.504h-1.981c-0.29,0-0.503-0.241-0.503-0.504v-5.236c0-1.375-0.606-2.245-1.958-2.245
		c-1.32,0-1.955,0.949-2.219,1.664v5.817c0,0.263-0.24,0.504-0.503,0.504h-2.142c-0.266,0-0.502-0.241-0.502-0.504V27.44z"/>
	<path d="M15.858,26.673c1.641,0,2.909,0.661,3.913,1.879c0.185,0.236,0.134,0.556-0.131,0.738l-1.216,1.165
		c-0.237,0.212-0.475,0.079-0.661-0.081c-0.425-0.475-1.084-0.843-1.826-0.843c-1.428,0-2.591,1.215-2.591,2.694
		c0,1.509,1.136,2.699,2.565,2.699c1.136,0,1.64-0.557,2.113-1.006c0.189-0.185,0.453-0.236,0.664-0.079l1.138,0.977
		c0.263,0.214,0.367,0.479,0.185,0.742c-0.9,1.399-2.301,2.221-4.178,2.221c-2.991,0-5.605-2.381-5.605-5.554
		C10.227,29.107,12.896,26.673,15.858,26.673z"/>
</g>
<g class="cmUsrIcon-twoGroup">
	<path fill="#009BD4" d="M36.347,19.927v-0.395c0.161-0.077,0.272-0.238,0.272-0.427c0-0.219-0.151-0.395-0.356-0.451v-1.075
		l3.843-1.674l-15.146-6.6l-15.147,6.6l8.514,3.709l-0.619,3.79c0,0.942,0.844,0.92,2.192,0.663
		c1.345-0.259,2.671-0.754,5.063-0.754c2.393,0,3.915,0.495,5.193,0.754c1.279,0.258,2.057,0.28,2.057-0.663l-0.619-3.79
		l4.426-1.927v0.97c-0.198,0.056-0.347,0.232-0.347,0.448c0,0.192,0.113,0.356,0.277,0.431v0.39
		c-0.082,0.067-0.112,0.157-0.112,0.194c0,0.056-0.201,1.669-0.41,4.866c0,0.541,1.438,0.518,1.438,0
		c-0.224-3.217-0.403-4.81-0.403-4.866C36.46,20.084,36.429,19.994,36.347,19.927z"/>
	<path fill="#1C7BB3" d="M22.263,17.008c0.369-0.128,0.259-0.376,0.079-0.356c-3.172,0.502-3.85,1.92-3.85,1.92
		s-0.552,3.473-0.572,3.526C18.438,20.2,20.303,17.742,22.263,17.008z"/>
	<path fill="#1C7BB3" d="M27.645,17.008c-0.367-0.128-0.259-0.376-0.077-0.356c3.174,0.502,3.848,1.92,3.848,1.92
		s0.553,3.473,0.574,3.526C31.469,20.2,29.605,17.742,27.645,17.008z"/>
</g>
<g class="cmUsrIcon-threeGroup">
	<path fill="#3B302C" d="M39.338,26.814c0.368,0,0.67,0.3,0.67,0.669c0,0.366-0.302,0.666-0.67,0.666
		c-0.367,0-0.667-0.3-0.667-0.666C38.671,27.114,38.971,26.814,39.338,26.814z M39.338,28.039c0.31,0,0.557-0.25,0.557-0.556
		c0-0.309-0.247-0.557-0.557-0.557c-0.306,0-0.555,0.248-0.555,0.557C38.783,27.789,39.032,28.039,39.338,28.039z M39.107,27.178
		c0-0.021,0.015-0.037,0.034-0.037h0.265c0.115,0,0.229,0.07,0.229,0.208c0,0.139-0.1,0.19-0.151,0.201
		c0.038,0.075,0.075,0.149,0.111,0.222c0.014,0.021-0.005,0.049-0.031,0.049h-0.062c-0.015,0-0.028-0.014-0.034-0.024l-0.103-0.234
		h-0.14v0.226c0,0.018-0.015,0.033-0.034,0.033h-0.049c-0.02,0-0.034-0.016-0.034-0.033V27.178z M39.406,27.456
		c0.068,0,0.111-0.05,0.111-0.107c0-0.063-0.043-0.106-0.111-0.106h-0.183v0.214H39.406z"/>
</g>
</svg>
